#define listicon_width 48
#define listicon_height 48
static unsigned char listicon_bits[] = {
   0x00, 0x00, 0x00, 0x00, 0x00, 0x00, 0x00, 0x00, 0x00, 0x00, 0x00, 0x00,
   0x00, 0x00, 0x00, 0x00, 0x00, 0x00, 0x00, 0x00, 0x00, 0x00, 0x00, 0x00,
   0x00, 0xfe, 0xff, 0x7f, 0x00, 0x00, 0x00, 0x02, 0x00, 0xc0, 0x00, 0x00,
   0x00, 0x02, 0x00, 0x40, 0x01, 0x00, 0x00, 0x02, 0x00, 0x40, 0x02, 0x00,
   0x00, 0x02, 0x00, 0x40, 0x04, 0x00, 0x00, 0xe2, 0xdd, 0x4b, 0x08, 0x00,
   0x00, 0x02, 0x00, 0x40, 0x10, 0x00, 0x00, 0x62, 0x77, 0xdf, 0x3f, 0x00,
   0x00, 0x02, 0x00, 0x00, 0x30, 0x00, 0x00, 0xe2, 0xdf, 0xef, 0x31, 0x00,
   0x00, 0x02, 0x00, 0x00, 0x30, 0x00, 0x00, 0xe2, 0x77, 0x37, 0x30, 0x00,
   0x00, 0x02, 0x00, 0x00, 0x30, 0x00, 0x00, 0x02, 0x00, 0x00, 0x30, 0x00,
   0x00, 0xe2, 0xbb, 0xf7, 0x31, 0x00, 0x00, 0x02, 0x00, 0x00, 0x30, 0x00,
   0x00, 0xe2, 0xee, 0xbd, 0x30, 0x00, 0x00, 0x02, 0x00, 0x00, 0x30, 0x00,
   0x00, 0x62, 0x7b, 0xef, 0x31, 0x00, 0x00, 0x02, 0x00, 0x00, 0x30, 0x00,
   0x00, 0xe2, 0xef, 0x7b, 0x30, 0x00, 0x00, 0x02, 0x00, 0x00, 0x30, 0x00,
   0x00, 0x02, 0x00, 0x00, 0x30, 0x00, 0x00, 0xe2, 0xbd, 0xdb, 0x31, 0x00,
   0x00, 0x02, 0x00, 0x00, 0x30, 0x00, 0x00, 0xa2, 0xef, 0x6e, 0x30, 0x00,
   0x00, 0x02, 0x00, 0x00, 0x30, 0x00, 0x00, 0xe2, 0xf6, 0xbd, 0x30, 0x00,
   0x00, 0x02, 0x00, 0x00, 0x30, 0x00, 0x00, 0x02, 0x00, 0x00, 0x30, 0x00,
   0x00, 0xe2, 0xdf, 0xfb, 0x31, 0x00, 0x00, 0x02, 0x00, 0x00, 0x30, 0x00,
   0x00, 0x62, 0xfb, 0x5f, 0x30, 0x00, 0x00, 0x02, 0x00, 0x00, 0x30, 0x00,
   0x00, 0xe2, 0xdf, 0xbd, 0x31, 0x00, 0x00, 0x02, 0x00, 0x00, 0x30, 0x00,
   0x00, 0x02, 0x00, 0x00, 0x30, 0x00, 0x00, 0x02, 0x00, 0x00, 0x30, 0x00,
   0x00, 0xfe, 0xff, 0xff, 0x3f, 0x00, 0x00, 0xfc, 0xff, 0xff, 0x3f, 0x00,
   0x00, 0x00, 0x00, 0x00, 0x00, 0x00, 0x00, 0x00, 0x00, 0x00, 0x00, 0x00,
   0x00, 0x00, 0x00, 0x00, 0x00, 0x00, 0x00, 0x00, 0x00, 0x00, 0x00, 0x00};
