#define memicon_width 48
#define memicon_height 48
static unsigned char memicon_bits[] = {
   0x00, 0x00, 0x00, 0x00, 0x00, 0x00, 0x00, 0x00, 0x00, 0x00, 0x00, 0x00,
   0x00, 0x00, 0x00, 0x00, 0x00, 0x00, 0x00, 0x00, 0x00, 0x00, 0x00, 0x00,
   0x00, 0xfe, 0xff, 0x7f, 0x00, 0x00, 0x00, 0x02, 0x00, 0xc0, 0x00, 0x00,
   0x00, 0xda, 0xb6, 0x4d, 0x01, 0x00, 0x00, 0x02, 0x00, 0x40, 0x02, 0x00,
   0x00, 0xda, 0xb6, 0x4d, 0x04, 0x00, 0x00, 0x02, 0x00, 0x40, 0x08, 0x00,
   0x00, 0xda, 0xb6, 0x4d, 0x10, 0x00, 0x00, 0x02, 0x00, 0xc0, 0x3f, 0x00,
   0x00, 0xda, 0xf0, 0x21, 0x30, 0x00, 0x00, 0x02, 0x0c, 0x06, 0x30, 0x00,
   0x00, 0x5a, 0xe2, 0x08, 0x33, 0x00, 0x00, 0x02, 0x19, 0x13, 0x30, 0x00,
   0x00, 0x9a, 0x04, 0x24, 0x33, 0x00, 0x00, 0x82, 0x02, 0x28, 0x30, 0x00,
   0x00, 0x5a, 0xba, 0x4b, 0x33, 0x00, 0x00, 0x42, 0x89, 0x50, 0x30, 0x00,
   0x00, 0x5a, 0xb9, 0x53, 0x33, 0x00, 0x00, 0x42, 0x89, 0x50, 0x30, 0x00,
   0x00, 0x5a, 0x8a, 0x48, 0x33, 0x00, 0x00, 0x82, 0x02, 0x28, 0x30, 0x00,
   0x00, 0x9a, 0x04, 0x24, 0x33, 0x00, 0x00, 0x02, 0x19, 0x33, 0x30, 0x00,
   0x00, 0x5a, 0xe2, 0x58, 0x32, 0x00, 0x00, 0x02, 0x0c, 0x96, 0x30, 0x00,
   0x00, 0xda, 0xf0, 0x21, 0x31, 0x00, 0x00, 0x02, 0x00, 0x40, 0x32, 0x00,
   0x00, 0xda, 0xb6, 0x8d, 0x34, 0x00, 0x00, 0x02, 0x00, 0x00, 0x39, 0x00,
   0x00, 0xda, 0xb6, 0x6d, 0x32, 0x00, 0x00, 0x02, 0x00, 0x00, 0x34, 0x00,
   0x00, 0xda, 0xb6, 0x6d, 0x39, 0x00, 0x00, 0x02, 0x00, 0x00, 0x30, 0x00,
   0x00, 0xda, 0xb6, 0x6d, 0x33, 0x00, 0x00, 0x02, 0x00, 0x00, 0x30, 0x00,
   0x00, 0xda, 0xb6, 0x6d, 0x33, 0x00, 0x00, 0x02, 0x00, 0x00, 0x30, 0x00,
   0x00, 0xda, 0xb6, 0x6d, 0x33, 0x00, 0x00, 0x02, 0x00, 0x00, 0x30, 0x00,
   0x00, 0xfe, 0xff, 0xff, 0x3f, 0x00, 0x00, 0xfc, 0xff, 0xff, 0x3f, 0x00,
   0x00, 0x00, 0x00, 0x00, 0x00, 0x00, 0x00, 0x00, 0x00, 0x00, 0x00, 0x00,
   0x00, 0x00, 0x00, 0x00, 0x00, 0x00, 0x00, 0x00, 0x00, 0x00, 0x00, 0x00};
