#define PageDown_width 16
#define PageDown_height 16
static unsigned char PageDown_bits[] = {
   0x00, 0x00, 0xfe, 0x7f, 0xfe, 0x7f, 0xfc, 0x3f, 0xf8, 0x1f, 0xf0, 0x0f,
   0xe0, 0x07, 0xde, 0x7b, 0xbe, 0x7d, 0x7c, 0x3e, 0xf8, 0x1f, 0xf0, 0x0f,
   0xe0, 0x07, 0xc0, 0x03, 0x80, 0x01, 0x00, 0x00};
