#define wait2_width 17
#define wait2_height 17
#define wait2_x_hot 8
#define wait2_y_hot 8
static unsigned char wait2_bits[] = {
   0xc0, 0x07, 0x00, 0x30, 0x1f, 0x00, 0x08, 0x3f, 0x00, 0x04, 0x7f, 0x00,
   0x02, 0xff, 0x00, 0x02, 0xff, 0x00, 0x01, 0xff, 0x01, 0x01, 0xff, 0x01,
   0xff, 0xff, 0x01, 0xff, 0x01, 0x01, 0xff, 0x01, 0x01, 0xfe, 0x81, 0x00,
   0xfe, 0x81, 0x00, 0xfc, 0x41, 0x00, 0xf8, 0x21, 0x00, 0xf0, 0x19, 0x00,
   0xc0, 0x07, 0x00};
