#define wait1_width 17
#define wait1_height 17
#define wait1_x_hot 8
#define wait1_y_hot 8
static unsigned char wait1_bits[] = {
   0xc0, 0x07, 0x00, 0xf0, 0x1f, 0x00, 0xf8, 0x3f, 0x00, 0xfc, 0x7f, 0x00,
   0xf2, 0x9f, 0x00, 0xe2, 0x8f, 0x00, 0xc1, 0x07, 0x01, 0x81, 0x03, 0x01,
   0x01, 0x01, 0x01, 0x81, 0x03, 0x01, 0xc1, 0x07, 0x01, 0xe2, 0x8f, 0x00,
   0xf2, 0x9f, 0x00, 0xfc, 0x7f, 0x00, 0xf8, 0x3f, 0x00, 0xf0, 0x1f, 0x00,
   0xc0, 0x07, 0x00};
